<?xml version="1.0" encoding="utf-8"?>
<!-- Generator: Adobe Illustrator 23.1.0, SVG Export Plug-In . SVG Version: 6.00 Build 0)  -->
<svg version="1.1" id="Слой_1" xmlns="http://www.w3.org/2000/svg" xmlns:xlink="http://www.w3.org/1999/xlink" x="0px" y="0px"
	 viewBox="0 0 1100 1100" style="enable-background:new 0 0 1100 1100;" xml:space="preserve">
<style type="text/css">
	.st0{fill:#e94859;}
</style>
<path class="st0" d="M817.1,1101c-5.5-0.8-11-1.8-16.5-2.4c-62.8-7.6-121.6-28.4-178.5-55C494.3,983.7,381.7,902.5,284,800.7
	c-73.4-76.4-136.8-160.3-188.2-253.1c-34-61.5-61.6-125.7-79.1-194C7.1,315.8,2.4,277.4,5.2,238.3c3.1-42.9,18.6-80.7,48.4-111.8
	c29-30.3,58.7-60,88.5-89.6c18.8-18.6,41-31.3,67.6-34.8C242.5-2.3,271,7.7,295.6,29c11,9.4,21.3,19.7,31.4,30
	c37.4,37.8,74.6,75.7,112,113.6c16.9,17.1,30.1,36.5,35.9,60.2c8,32.6,0.2,62-18.9,88.8c-5.3,7.4-11.4,14.3-17.8,20.9
	c-25.2,25.9-50.7,51.6-76.9,78.1c3.9,8,8.1,17,12.7,25.7c21.1,39.4,47.9,74.8,76.9,108.6c52,60.7,110.2,114.5,177.8,157.6
	c14.8,9.4,30.8,17,47.3,26c1.4-1.9,2.4-3.6,3.8-5c24.6-24.9,49.2-49.8,73.8-74.6c16.4-16.5,35.1-29.2,58-34.6
	c39.9-9.4,73.7,2.9,102.1,31c27.8,27.6,55,55.7,82.4,83.7c20.9,21.3,42.1,42.3,62.3,64.2c17,18.4,27.3,40.4,29.7,65.7
	c2.6,27.4-4.8,52.4-20.8,74.3c-9.6,13.1-21.1,24.9-32.3,36.7c-20.3,21.4-41.1,42.3-61.5,63.6c-32,33.6-71,52.6-117.3,56.7
	c-1.1,0.1-2.1,0.6-3.2,0.9C841.1,1101,829.1,1101,817.1,1101L817.1,1101z M65.5,251.9c0.1,36.6,4.2,63.2,11.2,89.3
	c14.9,55.7,37.1,108.5,63.9,159.4c45,85.5,101.7,162.9,166.7,234.2c95,104.3,205.7,187.6,333,248.7c57.6,27.6,117,49.6,181.4,54.9
	c18.9,1.6,37.6,0.7,55.9-4.8c20.8-6.2,38-18,52.9-33.6c23-24.1,46.4-47.8,69.4-71.9c6.7-7,13.3-14.1,18.7-22
	c12.9-18.8,12.4-38.6-0.8-57.3c-2.8-3.9-5.9-7.6-9.3-11.1c-45.2-45.8-90.5-91.5-135.8-137.2c-3.2-3.2-6.6-6.2-10.2-8.8
	c-16.7-12.2-34.3-12.8-51.6-1.6c-5.3,3.4-10.2,7.6-14.6,12c-27.8,27.8-55.4,55.9-83.1,83.8c-19.1,19.2-40.8,21.7-63.9,7.7
	c-6.5-4-13.4-7.3-20.1-11c-11.2-6.2-22.8-11.7-33.6-18.6c-89-57.3-163.1-130.5-227.3-214.2c-26.8-35-49.9-72.3-66.5-113.4
	c-9.2-22.6-4.9-41.4,12.4-58.2c28.2-27.5,56.1-55.1,83.8-83.1c5.3-5.4,9.8-11.8,13.5-18.5c7.2-13.2,7.3-27.1-0.1-40.1
	c-4.2-7.4-9.6-14.5-15.5-20.6C359.6,179,323.1,142,286.5,105c-9.5-9.6-19.1-19.1-29-28.2c-11.7-10.7-25.4-16.6-41.6-13.6
	c-12.9,2.4-23.3,9.5-32.4,18.7c-27.2,27.5-54.6,54.8-81.5,82.5c-7,7.2-13.4,15.3-18.9,23.8C68.8,210.4,65.3,235.5,65.5,251.9
	L65.5,251.9z"/>
</svg>
